<svg width="45" height="46" viewBox="0 0 45 46" fill="none" xmlns="http://www.w3.org/2000/svg">
<circle cx="6.93945" cy="4" r="4" fill="#86EFAC"/>
<circle cx="38.9395" cy="15" r="4" fill="#86EFAC"/>
<circle cx="22.9395" cy="22" r="4" fill="#86EFAC"/>
<circle cx="22.9395" cy="8" r="4" fill="#86EFAC"/>
<circle cx="6.93945" cy="26" r="4" fill="#86EFAC"/>
<circle cx="6.93945" cy="15" r="4" fill="#86EFAC"/>
<path d="M6.93945 26L22.9395 22" stroke="#86EFAC" stroke-opacity="0.7" stroke-width="1.5"/>
<path d="M6.93945 26L22.9395 8" stroke="#86EFAC" stroke-opacity="0.7" stroke-width="1.5"/>
<path d="M6.93945 15L22.9395 22" stroke="#86EFAC" stroke-opacity="0.7" stroke-width="1.5"/>
<path d="M6.93945 15L22.9395 8" stroke="#86EFAC" stroke-opacity="0.7" stroke-width="1.5"/>
<path d="M6.93945 4L22.9395 22" stroke="#86EFAC" stroke-opacity="0.7" stroke-width="1.5"/>
<path d="M6.93945 4L22.9395 8" stroke="#86EFAC" stroke-opacity="0.7" stroke-width="1.5"/>
<path d="M22.9395 22L38.9395 15" stroke="#86EFAC" stroke-opacity="0.7" stroke-width="1.5"/>
<path d="M22.9395 8L38.9395 15" stroke="#86EFAC" stroke-opacity="0.7" stroke-width="1.5"/>
<path d="M5.18555 40.082C5.18555 41.0508 4.97852 41.8027 4.56445 42.3379C4.1543 42.8691 3.52539 43.1348 2.67773 43.1348C1.99805 43.1348 1.42773 42.957 0.966797 42.6016C0.505859 42.2422 0.183594 41.707 0 40.9961L0.697266 40.7324C0.865234 41.3652 1.11523 41.8105 1.44727 42.0684C1.7793 42.3223 2.18945 42.4492 2.67773 42.4492C3.03711 42.4492 3.32812 42.377 3.55078 42.2324C3.77734 42.0879 3.94922 41.9043 4.06641 41.6816C4.1875 41.4551 4.26953 41.2031 4.3125 40.9258C4.35547 40.6445 4.37695 40.3633 4.37695 40.082V35.3535H5.18555V40.082ZM12.1641 40.2871C12.1641 40.7129 12.0957 41.0996 11.959 41.4473C11.8262 41.7949 11.6328 42.0938 11.3789 42.3438C11.1289 42.5898 10.8281 42.7832 10.4766 42.9238C10.125 43.0645 9.73242 43.1348 9.29883 43.1348C8.87305 43.1348 8.48438 43.0645 8.13281 42.9238C7.78125 42.7832 7.47852 42.5898 7.22461 42.3438C6.97461 42.0938 6.78125 41.7949 6.64453 41.4473C6.51172 41.0996 6.44531 40.7129 6.44531 40.2871C6.44531 39.873 6.51172 39.4883 6.64453 39.1328C6.78125 38.7734 6.97461 38.4688 7.22461 38.2188C7.47852 37.9648 7.78125 37.7676 8.13281 37.627C8.48438 37.4824 8.87305 37.4102 9.29883 37.4102C9.73242 37.4102 10.125 37.4824 10.4766 37.627C10.8281 37.7676 11.1289 37.9648 11.3789 38.2188C11.6328 38.4688 11.8262 38.7734 11.959 39.1328C12.0957 39.4883 12.1641 39.873 12.1641 40.2871ZM11.3613 40.2871C11.3613 39.9746 11.3145 39.6875 11.2207 39.4258C11.1309 39.1602 10.9961 38.9277 10.8164 38.7285C10.6367 38.5293 10.418 38.373 10.1602 38.2598C9.90625 38.1465 9.61914 38.0898 9.29883 38.0898C8.97852 38.0898 8.68945 38.1465 8.43164 38.2598C8.17773 38.373 7.96289 38.5293 7.78711 38.7285C7.61133 38.9277 7.47656 39.1602 7.38281 39.4258C7.29297 39.6875 7.24805 39.9746 7.24805 40.2871C7.24805 40.5996 7.29297 40.8887 7.38281 41.1543C7.47656 41.416 7.61133 41.6426 7.78711 41.834C7.96289 42.0254 8.17773 42.1758 8.43164 42.2852C8.68945 42.3945 8.97852 42.4492 9.29883 42.4492C9.61914 42.4492 9.90625 42.3945 10.1602 42.2852C10.418 42.1758 10.6367 42.0254 10.8164 41.834C10.9961 41.6426 11.1309 41.416 11.2207 41.1543C11.3145 40.8887 11.3613 40.5996 11.3613 40.2871ZM18.7148 40.2871C18.7148 40.7129 18.6465 41.0996 18.5098 41.4473C18.377 41.7949 18.1836 42.0938 17.9297 42.3438C17.6797 42.5898 17.3789 42.7832 17.0273 42.9238C16.6758 43.0645 16.2832 43.1348 15.8496 43.1348C15.4238 43.1348 15.0352 43.0645 14.6836 42.9238C14.332 42.7832 14.0293 42.5898 13.7754 42.3438C13.5254 42.0938 13.332 41.7949 13.1953 41.4473C13.0625 41.0996 12.9961 40.7129 12.9961 40.2871C12.9961 39.873 13.0625 39.4883 13.1953 39.1328C13.332 38.7734 13.5254 38.4688 13.7754 38.2188C14.0293 37.9648 14.332 37.7676 14.6836 37.627C15.0352 37.4824 15.4238 37.4102 15.8496 37.4102C16.2832 37.4102 16.6758 37.4824 17.0273 37.627C17.3789 37.7676 17.6797 37.9648 17.9297 38.2188C18.1836 38.4688 18.377 38.7734 18.5098 39.1328C18.6465 39.4883 18.7148 39.873 18.7148 40.2871ZM17.9121 40.2871C17.9121 39.9746 17.8652 39.6875 17.7715 39.4258C17.6816 39.1602 17.5469 38.9277 17.3672 38.7285C17.1875 38.5293 16.9688 38.373 16.7109 38.2598C16.457 38.1465 16.1699 38.0898 15.8496 38.0898C15.5293 38.0898 15.2402 38.1465 14.9824 38.2598C14.7285 38.373 14.5137 38.5293 14.3379 38.7285C14.1621 38.9277 14.0273 39.1602 13.9336 39.4258C13.8438 39.6875 13.7988 39.9746 13.7988 40.2871C13.7988 40.5996 13.8438 40.8887 13.9336 41.1543C14.0273 41.416 14.1621 41.6426 14.3379 41.834C14.5137 42.0254 14.7285 42.1758 14.9824 42.2852C15.2402 42.3945 15.5293 42.4492 15.8496 42.4492C16.1699 42.4492 16.457 42.3945 16.7109 42.2852C16.9688 42.1758 17.1875 42.0254 17.3672 41.834C17.5469 41.6426 17.6816 41.416 17.7715 41.1543C17.8652 40.8887 17.9121 40.5996 17.9121 40.2871ZM24.8379 43H24.0293V39.6309C24.0293 39.1426 23.9238 38.7637 23.7129 38.4941C23.502 38.2246 23.1602 38.0898 22.6875 38.0898C22.3906 38.0898 22.1211 38.1582 21.8789 38.2949C21.6406 38.4316 21.4375 38.6152 21.2695 38.8457C21.1016 39.0723 20.9727 39.334 20.8828 39.6309C20.7969 39.9238 20.7539 40.2305 20.7539 40.5508V43H19.9512V37.5391H20.7539V38.9102C21.1406 37.9102 21.8301 37.4102 22.8223 37.4102C24.166 37.4102 24.8379 38.1504 24.8379 39.6309V43ZM29.4902 36.4492H28.4004V35.3535H29.4902V36.4492ZM30.5801 43H27.3047V42.3145H28.541V38.2246H27.3047V37.5391H29.3496V42.3145H30.5801V43ZM38.2266 38.2246H35.9004V42.3145H37.1309V43H33.8555V42.3145H35.0918V38.2246H33.8555V37.5391H35.0918C35.0918 36.7891 35.2852 36.2168 35.6719 35.8223C36.0625 35.4238 36.6504 35.2246 37.4355 35.2246C37.6191 35.2246 37.7734 35.2305 37.8984 35.2422C38.0273 35.2539 38.1367 35.2676 38.2266 35.2832V35.9688C38.1133 35.9531 37.9941 35.9395 37.8691 35.9277C37.748 35.916 37.6035 35.9102 37.4355 35.9102C36.9238 35.9102 36.5391 36.041 36.2812 36.3027C36.0273 36.5605 35.9004 36.9727 35.9004 37.5391H38.2266V38.2246ZM44.9473 37.5391L41.9941 44.3828C41.8418 44.7656 41.627 45.0156 41.3496 45.1328C41.0723 45.2539 40.7656 45.3145 40.4297 45.3145C40.0547 45.3145 39.6797 45.2461 39.3047 45.1094L39.4629 44.418C39.6465 44.4961 39.8262 44.5508 40.002 44.582C40.1777 44.6172 40.3203 44.6348 40.4297 44.6348C40.6953 44.6348 40.877 44.5703 40.9746 44.4414C41.0762 44.3125 41.1641 44.1602 41.2383 43.9844L41.5723 43.1582L39.1348 37.5391H40.084L42.0527 42.3145L43.9863 37.5391H44.9473Z" fill="#86EFAC"/>
</svg>
